<?xml version="1.0" encoding="UTF-8"?>
<svg width="32px" height="32px" viewBox="0 0 32 32" version="1.1" xmlns="http://www.w3.org/2000/svg" xmlns:xlink="http://www.w3.org/1999/xlink">
    <!-- Generator: Sketch 62 (91390) - https://sketch.com -->
    <title>icon/32px/double_page</title>
    <desc>Created with Sketch.</desc>
    <g id="icon/32px/double_page" stroke="none" stroke-width="1" fill="none" fill-rule="evenodd">
        <path d="M25,4 C26.5976809,4 27.9036609,5.24891996 27.9949073,6.82372721 L28,7 L28,25 C28,26.5976809 26.75108,27.9036609 25.1762728,27.9949073 L25,28 L7,28 C5.40231912,28 4.09633912,26.75108 4.00509269,25.1762728 L4,25 L4,7 C4,5.40231912 5.24891996,4.09633912 6.82372721,4.00509269 L7,4 L25,4 Z M7,6 C6.48716416,6 6.06449284,6.38604019 6.00672773,6.88337887 L6,7 L6,25 C6,25.5128358 6.38604019,25.9355072 6.88337887,25.9932723 L7,26 L15,26 L15,6 L7,6 Z M17,26 L25,26 C25.5128358,26 25.9355072,25.6139598 25.9932723,25.1166211 L26,25 L26,7 C26,6.48716416 25.6139598,6.06449284 25.1166211,6.00672773 L25,6 L17,6 L17,26 Z" id="形状" fill="#D1D1D1"></path>
    </g>
</svg>