<?xml version="1.0" encoding="UTF-8"?>
<svg width="30px" height="30px" viewBox="0 0 30 30" version="1.1" xmlns="http://www.w3.org/2000/svg" xmlns:xlink="http://www.w3.org/1999/xlink">
    <!-- Generator: Sketch 60 (88103) - https://sketch.com -->
    <title>01 icon/30px/浅色/删除</title>
    <desc>Created with Sketch.</desc>
    <g id="01-icon/30px/浅色/删除" stroke="none" stroke-width="1" fill="none" fill-rule="evenodd">
        <path d="M15,4 C21.0751322,4 26,8.92486775 26,15 C26,21.0751322 21.0751322,26 15,26 C8.92486775,26 4,21.0751322 4,15 C4,8.92486775 8.92486775,4 15,4 Z M15,6 C10.0294373,6 6,10.0294373 6,15 C6,19.9705627 10.0294373,24 15,24 C19.9705627,24 24,19.9705627 24,15 C24,10.0294373 19.9705627,6 15,6 Z M21,14 L21,16 L9,16 L9,14 L21,14 Z" id="形状结合" fill="#50545E"></path>
    </g>
</svg>