<?xml version="1.0" encoding="UTF-8"?>
<svg width="40px" height="40px" viewBox="0 0 40 40" version="1.1" xmlns="http://www.w3.org/2000/svg" xmlns:xlink="http://www.w3.org/1999/xlink">
    <!-- Generator: Sketch 62 (91390) - https://sketch.com -->
    <title>icon/40px/bar/select</title>
    <desc>Created with Sketch.</desc>
    <g id="icon/40px/bar/select" stroke="none" stroke-width="1" fill="none" fill-rule="evenodd">
        <path d="M9.5682451,6.37106304 L31.7442485,17.3037423 C32.2070873,17.502104 32.4214901,18.0381168 32.2231306,18.5009606 C32.1381815,18.6991775 31.9857246,18.8608677 31.7928403,18.9573109 L25.1385719,22.2844807 C23.903412,22.9020673 22.9018775,23.9036125 22.2842975,25.1387857 L18.9571633,31.7931254 C18.7319673,32.2435223 18.1842949,32.4260817 17.7339028,32.2008833 C17.5410185,32.1044401 17.3885617,31.9427499 17.3036125,31.744533 L8.37103963,7.56828134 C8.17268013,7.10543755 8.38708299,6.56942466 8.84992181,6.37106304 C9.07927508,6.27276773 9.33889183,6.27276773 9.5682451,6.37106304 Z" id="矩形" fill="#FBFCFE"></path>
        <path d="M18.1715729,21 L21,18.1715729 L32.6213203,29.7928932 C33.0118446,30.1834175 33.0118446,30.8165825 32.6213203,31.2071068 L31.2071068,32.6213203 C30.8165825,33.0118446 30.1834175,33.0118446 29.7928932,32.6213203 L18.1715729,21 L18.1715729,21 Z" id="路径-18" fill="#FBFCFE" fill-rule="nonzero"></path>
    </g>
</svg>