<?xml version="1.0" encoding="UTF-8"?>
<svg width="32px" height="32px" viewBox="0 0 32 32" version="1.1" xmlns="http://www.w3.org/2000/svg" xmlns:xlink="http://www.w3.org/1999/xlink">
    <title>01 通用/01 图标/32px/arrow_right</title>
    <g id="01-通用/01-图标/32px/arrow_right" stroke="none" stroke-width="1" fill="none" fill-rule="evenodd">
        <path d="M22.4393398,4.43933983 C23.0251263,3.85355339 23.9748737,3.85355339 24.5606602,4.43933983 C25.109835,4.98851461 25.1441584,5.85757702 24.6636304,6.44673776 L24.5606602,6.56066017 L15.3281182,15.7929046 C14.9375648,16.1833998 14.9375546,16.8165648 15.3280726,17.2070954 C15.3280802,17.207103 15.3280878,17.2071106 15.3281182,17.2070954 L24.5606602,26.4393398 L24.5606602,26.4393398 C25.109835,26.9885146 25.1441584,27.857577 24.6636304,28.4467378 L24.5606602,28.5606602 C24.0114854,29.109835 23.142423,29.1441584 22.5532622,28.6636304 L22.4393398,28.5606602 L11.4393398,17.5606602 C10.890165,17.0114854 10.8558416,16.142423 11.3363696,15.5532622 L11.4393398,15.4393398 L22.4393398,4.43933983 Z" id="路径-3" fill="#D1D1D1" transform="translate(18.000000, 16.500000) scale(-1, 1) translate(-18.000000, -16.500000) "></path>
    </g>
</svg>