<?xml version="1.0" encoding="UTF-8"?>
<svg width="32px" height="32px" viewBox="0 0 32 32" version="1.1" xmlns="http://www.w3.org/2000/svg" xmlns:xlink="http://www.w3.org/1999/xlink">
    <title>01 通用/01 图标/32px/arrow_left</title>
    <g id="01-通用/01-图标/32px/arrow_left" stroke="none" stroke-width="1" fill="none" fill-rule="evenodd">
        <path d="M18.4393398,4.43933983 C19.0251263,3.85355339 19.9748737,3.85355339 20.5606602,4.43933983 C21.109835,4.98851461 21.1441584,5.85757702 20.6636304,6.44673776 L20.5606602,6.56066017 L11.3281182,15.7929046 C10.9375648,16.1833998 10.9375546,16.8165648 11.3280726,17.2070954 C11.3280802,17.207103 11.3280878,17.2071106 11.3281182,17.2070954 L20.5606602,26.4393398 L20.5606602,26.4393398 C21.109835,26.9885146 21.1441584,27.857577 20.6636304,28.4467378 L20.5606602,28.5606602 C20.0114854,29.109835 19.142423,29.1441584 18.5532622,28.6636304 L18.4393398,28.5606602 L7.43933983,17.5606602 C6.89016504,17.0114854 6.85584162,16.142423 7.33636956,15.5532622 L7.43933983,15.4393398 L18.4393398,4.43933983 Z" id="路径-3" fill="#D1D1D1"></path>
    </g>
</svg>