<?xml version="1.0" encoding="UTF-8"?>
<svg width="32px" height="32px" viewBox="0 0 32 32" version="1.1" xmlns="http://www.w3.org/2000/svg" xmlns:xlink="http://www.w3.org/1999/xlink">
    <title>01 通用/01 图标/32px/2pages</title>
    <g id="01-通用/01-图标/32px/2pages" stroke="none" stroke-width="1" fill="none" fill-rule="evenodd">
        <path d="M24,4 C26.1421954,4 27.8910789,5.68396847 27.9951047,7.80035966 L28,8 L28,24 C28,26.1421954 26.3160315,27.8910789 24.1996403,27.9951047 L24,28 L7,28 C4.85780461,28 3.10892112,26.3160315 3.00489531,24.1996403 L3,24 L3,8 C3,5.85780461 4.68396847,4.10892112 6.80035966,4.00489531 L7,4 L24,4 Z M7,7 C6.48716416,7 6.06449284,7.38604019 6.00672773,7.88337887 L6,8 L6,24 C6,24.5128358 6.38604019,24.9355072 6.88337887,24.9932723 L7,25 L14,25 L14,7 L7,7 Z M17,25 L24,25 C24.5128358,25 24.9355072,24.6139598 24.9932723,24.1166211 L25,24 L25,8 C25,7.48716416 24.6139598,7.06449284 24.1166211,7.00672773 L24,7 L17,7 L17,25 Z" id="形状" fill="#FBFCFE"></path>
    </g>
</svg>