<?xml version="1.0" encoding="UTF-8"?>
<svg width="65px" height="36px" viewBox="0 0 65 36" version="1.1" xmlns="http://www.w3.org/2000/svg" xmlns:xlink="http://www.w3.org/1999/xlink">
    <title>02 导航/弹出工具条/zz资源/擦除/擦除滑动</title>
    <g id="02-导航/弹出工具条/zz资源/擦除/擦除滑动" stroke="none" stroke-width="1" fill="none" fill-rule="evenodd">
        <g id="编组-2">
            <path d="M47.9857115,0.500012772 L17.0143441,0.527276764 C12.4005233,0.783323479 8.26363052,2.82684824 5.28432042,5.97656342 C2.31859836,9.11191338 0.5,13.3435838 0.5,18 C0.5,22.6550391 2.31753236,26.8855616 5.28158159,30.0239667 C8.26113049,33.1787831 12.3991219,35.2302764 17.0142743,35.4999872 L47.9866443,35.4726684 C52.600242,35.2163751 56.736895,33.1727723 59.7160175,30.0230793 C62.6815398,26.8877652 64.5,22.6562393 64.5,18 C64.5,13.3450857 62.6825644,9.11466523 59.7185339,5.97627999 C56.739051,2.82153337 52.6010857,0.769993975 47.9857115,0.500012772 Z" id="形状结合" stroke="#000000" fill="#49515A"></path>
            <g id="编组" transform="translate(32.500000, 18.000000) rotate(-270.000000) translate(-32.500000, -18.000000) translate(22.500000, 10.500000)" fill="#FFFFFF">
                <rect id="矩形" x="0" y="6" width="20" height="3" rx="1.5"></rect>
                <rect id="矩形" x="0" y="0" width="20" height="3" rx="1.5"></rect>
                <rect id="矩形" x="0" y="12" width="20" height="3" rx="1.5"></rect>
            </g>
        </g>
    </g>
</svg>