<?xml version="1.0" encoding="UTF-8"?>
<svg width="24px" height="24px" viewBox="0 0 24 24" version="1.1" xmlns="http://www.w3.org/2000/svg" xmlns:xlink="http://www.w3.org/1999/xlink">
    <title>反馈按钮备份</title>
    <g id="反馈按钮备份" stroke="none" stroke-width="1" fill="none" fill-rule="evenodd">
        <path d="M14.2615537,4 C15.1381603,4 15.4560391,4.09282561 15.7765133,4.2671327 C16.0969876,4.4414398 16.3484977,4.69722837 16.5198892,5.0231543 C16.6912808,5.34908022 16.7825537,5.67236646 16.7825537,6.5638852 L16.782,9.517 L15.799,10.723 L15.7992804,6.5638852 C15.7992804,5.90203328 15.7610098,5.70048072 15.6528258,5.49475316 C15.5730752,5.3430957 15.4619235,5.2300532 15.3128028,5.1489459 C15.128906,5.0489238 14.9484019,5.00766428 14.4281612,5.00098918 L6.35439256,5.00098918 L6.05413126,5.01082819 C5.75376021,5.0289037 5.61278178,5.07115094 5.46975096,5.1489459 C5.32063023,5.2300532 5.20947854,5.3430957 5.1297279,5.49475316 C5.03137884,5.68177822 4.99080944,5.86535286 4.98424599,6.39444355 L4.98327336,17.4361148 C4.98327336,18.0979667 5.02154393,18.2995193 5.1297279,18.5052468 C5.20947854,18.6569043 5.32063023,18.7699468 5.46975096,18.8510541 C5.65364772,18.9510762 5.83415178,18.9923357 6.35439256,18.9990108 L14.2615537,19 C14.9123351,19 15.1105163,18.9610784 15.3128028,18.8510541 C15.4619235,18.7699468 15.5730752,18.6569043 15.6528258,18.5052468 C15.7511749,18.3182218 15.7917443,18.1346471 15.7983077,17.6055565 L15.798,14.29 L16.782,13.084 L16.7825537,17.4361148 C16.7825537,18.3276335 16.6912808,18.6509198 16.5198892,18.9768457 C16.3484977,19.3027716 16.0969876,19.5585602 15.7765133,19.7328673 C15.4560391,19.9071744 15.1381603,20 14.2615537,20 L6.52100002,20 C5.64439339,20 5.32651465,19.9071744 5.00604037,19.7328673 C4.68556608,19.5585602 4.43405599,19.3027716 4.26266447,18.9768457 C4.10445691,18.675991 4.01451607,18.3773855 4.00161515,17.6320228 L4,6.5638852 C4,5.67236646 4.09127295,5.34908022 4.26266447,5.0231543 C4.43405599,4.69722837 4.68556608,4.4414398 5.00604037,4.2671327 C5.30186278,4.10623385 5.59547361,4.014763 6.32836894,4.00164263 L14.2615537,4 Z M20.8222317,6.34795916 C21.0079948,6.50467098 21.051458,6.77114342 20.9370726,6.97769743 L20.8867485,7.0520151 L13.2278584,16.4422196 C13.0545065,16.6547582 12.7445624,16.6841347 12.5355789,16.5078339 C12.3498158,16.3511221 12.3063526,16.0846497 12.4207381,15.8780957 L12.4710621,15.803778 L20.1299523,6.41357346 C20.3033041,6.20103489 20.6132482,6.17165837 20.8222317,6.34795916 Z M9.89964018,13 C10.1711636,13 10.3912769,13.2238576 10.3912769,13.5 C10.3912769,13.7454599 10.2173602,13.9496084 9.98801249,13.9919443 L9.89964018,14 L7.93309345,14 C7.66157001,14 7.44145677,13.7761424 7.44145677,13.5 C7.44145677,13.2545401 7.6153734,13.0503916 7.84472114,13.0080557 L7.93309345,13 L9.89964018,13 Z M12.8494603,10 C13.1209837,10 13.3410969,10.2238576 13.3410969,10.5 C13.3410969,10.7454599 13.1671803,10.9496084 12.9378326,10.9919443 L12.8494603,11 L7.93309345,11 C7.66157001,11 7.44145677,10.7761424 7.44145677,10.5 C7.44145677,10.2545401 7.6153734,10.0503916 7.84472114,10.0080557 L7.93309345,10 L12.8494603,10 Z M12.8494603,7 C13.1209837,7 13.3410969,7.22385763 13.3410969,7.5 C13.3410969,7.74545989 13.1671803,7.94960837 12.9378326,7.99194433 L12.8494603,8 L7.93309345,8 C7.66157001,8 7.44145677,7.77614237 7.44145677,7.5 C7.44145677,7.25454011 7.6153734,7.05039163 7.84472114,7.00805567 L7.93309345,7 L12.8494603,7 Z" id="形状结合" fill="#FFFFFF" fill-rule="nonzero"></path>
    </g>
</svg>