<?xml version="1.0" encoding="UTF-8"?>
<svg width="32px" height="32px" viewBox="0 0 32 32" version="1.1" xmlns="http://www.w3.org/2000/svg" xmlns:xlink="http://www.w3.org/1999/xlink">
    <title>01 通用/01 图标/32px/feedback</title>
    <g id="01-通用/01-图标/32px/feedback" stroke="none" stroke-width="1" fill="none" fill-rule="evenodd">
        <g id="01-通用／01-图标／32px／close" transform="translate(4.000000, 4.000000)" fill="#FBFCFE" fill-rule="nonzero">
            <path d="M16,0 C18.209139,0 20,1.790861 20,4 L20,6.756 L17,9.756 L17,4 C17,3.48716416 16.6139598,3.06449284 16.1166211,3.00672773 L16,3 L4,3 C3.48716416,3 3.06449284,3.38604019 3.00672773,3.88337887 L3,4 L3,21 C3,21.5128358 3.38604019,21.9355072 3.88337887,21.9932723 L4,22 L16,22 C16.5128358,22 16.9355072,21.6139598 16.9932723,21.1166211 L17,21 L17,18.242 L20,15.242 L20,21 C20,23.209139 18.209139,25 16,25 L4,25 C1.790861,25 0,23.209139 0,21 L0,4 C0,1.790861 1.790861,0 4,0 L16,0 Z M24.5606602,6.4393398 C25.109835,6.9885146 25.1441584,7.857577 24.6636304,8.4467378 L24.5606602,8.5606602 L13.5606602,19.5606602 C12.9748737,20.1464466 12.0251263,20.1464466 11.4393398,19.5606602 C10.890165,19.0114854 10.8558416,18.142423 11.3363696,17.5532622 L11.4393398,17.4393398 L22.4393398,6.4393398 C23.0251263,5.85355339 23.9748737,5.85355339 24.5606602,6.4393398 Z M10.5,11 C11.3284271,11 12,11.6715729 12,12.5 C12,13.2796961 11.4051119,13.9204487 10.64446,13.9931334 L10.5,14 L6.5,14 C5.67157288,14 5,13.3284271 5,12.5 C5,11.7203039 5.59488808,11.0795513 6.35554,11.0068666 L6.5,11 L10.5,11 Z M13.5,6 C14.3284271,6 15,6.6715729 15,7.5 C15,8.2796961 14.4051119,8.9204487 13.64446,8.9931334 L13.5,9 L6.5,9 C5.67157288,9 5,8.3284271 5,7.5 C5,6.7203039 5.59488808,6.0795513 6.35554,6.0068666 L6.5,6 L13.5,6 Z" id="形状"></path>
        </g>
    </g>
</svg>