<?xml version="1.0" encoding="UTF-8"?>
<svg width="32px" height="32px" viewBox="0 0 32 32" version="1.1" xmlns="http://www.w3.org/2000/svg" xmlns:xlink="http://www.w3.org/1999/xlink">
    <!-- Generator: Sketch 62 (91390) - https://sketch.com -->
    <title>icon/32px/single_page</title>
    <desc>Created with Sketch.</desc>
    <g id="icon/32px/single_page" stroke="none" stroke-width="1" fill="none" fill-rule="evenodd">
        <path d="M22,4 L10,4 C8.34314575,4 7,5.34314575 7,7 L7,25 C7,26.6568542 8.34314575,28 10,28 L22,28 C23.6568542,28 25,26.6568542 25,25 L25,7 C25,5.34314575 23.6568542,4 22,4 Z M22,6 C22.5522847,6 23,6.44771525 23,7 L23,25 C23,25.5522847 22.5522847,26 22,26 L10,26 C9.44771525,26 9,25.5522847 9,25 L9,7 C9,6.44771525 9.44771525,6 10,6 L22,6 Z" id="矩形备份" fill="#D1D1D1"></path>
    </g>
</svg>