<?xml version="1.0" encoding="UTF-8"?>
<svg width="32px" height="32px" viewBox="0 0 32 32" version="1.1" xmlns="http://www.w3.org/2000/svg" xmlns:xlink="http://www.w3.org/1999/xlink">
    <title>01 通用/01 图标/32px/1page</title>
    <g id="01-通用/01-图标/32px/1page" stroke="none" stroke-width="1" fill="none" fill-rule="evenodd">
        <path d="M21,4 L11,4 C8.790861,4 7,5.790861 7,8 L7,24 C7,26.209139 8.790861,28 11,28 L21,28 C23.209139,28 25,26.209139 25,24 L25,8 C25,5.790861 23.209139,4 21,4 Z M21,7 C21.5522847,7 22,7.44771525 22,8 L22,24 C22,24.5522847 21.5522847,25 21,25 L11,25 C10.4477153,25 10,24.5522847 10,24 L10,8 C10,7.44771525 10.4477153,7 11,7 L21,7 Z" id="矩形" fill="#D1D1D1" transform="translate(16.000000, 16.000000) rotate(-360.000000) translate(-16.000000, -16.000000) "></path>
    </g>
</svg>