<?xml version="1.0" encoding="UTF-8"?>
<svg width="40px" height="40px" viewBox="0 0 40 40" version="1.1" xmlns="http://www.w3.org/2000/svg" xmlns:xlink="http://www.w3.org/1999/xlink">
    <!-- Generator: Sketch 62 (91390) - https://sketch.com -->
    <title>icon/40px/bar/eraser</title>
    <desc>Created with Sketch.</desc>
    <g id="icon/40px/bar/eraser" stroke="none" stroke-width="1" fill="none" fill-rule="evenodd">
        <path d="M27.8535534,34.6464466 C27.8535534,35.1987314 27.4058381,35.6464466 26.8535534,35.6464466 L13.8535534,35.6464466 C13.3012686,35.6464466 12.8535534,35.1987314 12.8535534,34.6464466 L12.8535534,25.6464466 C12.3012686,25.6464466 11.8535534,25.1987314 11.8535534,24.6464466 L11.8535534,5.64644661 C11.8535534,5.09416186 12.3012686,4.64644661 12.8535534,4.64644661 L27.8535534,4.64644661 C28.4058381,4.64644661 28.8535534,5.09416186 28.8535534,5.64644661 L28.8535534,24.6464466 C28.8535534,25.1987314 28.4058381,25.6464466 27.8535534,25.6464466 L27.8535534,34.6464466 Z M15.8535534,25.6464466 L15.8535534,32.6464466 L24.8535534,32.6464466 L24.8535534,25.6464466 L15.8535534,25.6464466 Z" id="形状" fill="#FBFCFE" transform="translate(20.353553, 20.146447) rotate(-315.000000) translate(-20.353553, -20.146447) "></path>
        <path d="M37,31 L37,36 C37,36.5522847 36.5522847,37 36,37 L31,37 L31,37 L37,31 Z" id="矩形" fill="#FFFFFF"></path>
    </g>
</svg>