<?xml version="1.0" encoding="UTF-8"?>
<svg width="40px" height="40px" viewBox="0 0 40 40" version="1.1" xmlns="http://www.w3.org/2000/svg" xmlns:xlink="http://www.w3.org/1999/xlink">
    <title>01 通用/01 图标/40px/nav/eraser</title>
    <g id="01-通用/01-图标/40px/nav/eraser" stroke="none" stroke-width="1" fill="none" fill-rule="evenodd">
        <path d="M37,31 L37,36 C37,36.5522847 36.5522847,37 36,37 L31,37 L37,31 Z M26.0104076,3.88299064 L36.6170094,14.4895924 C37.0075336,14.8801167 37.0075336,15.5132816 36.6170094,15.9038059 L23.1819805,29.3388348 C22.7914562,29.7293591 22.1582912,29.7293591 21.767767,29.3388348 L15.4038059,35.7027958 C15.0132816,36.0933201 14.3801167,36.0933201 13.9895924,35.7027958 L4.7972042,26.5104076 C4.40667991,26.1198833 4.40667991,25.4867184 4.7972042,25.0961941 L11.1611652,18.732233 C10.7706409,18.3417088 10.7706409,17.7085438 11.1611652,17.3180195 L24.5961941,3.88299064 C24.9867184,3.49246635 25.6198833,3.49246635 26.0104076,3.88299064 Z M13.2824856,20.8535534 L8.33273811,25.8033009 L14.6966991,32.1672619 L19.6464466,27.2175144 L13.2824856,20.8535534 Z" id="Combined-Shape" fill="#FFFFFF"></path>
    </g>
</svg>