<?xml version="1.0" encoding="UTF-8"?>
<svg width="40px" height="40px" viewBox="0 0 40 40" version="1.1" xmlns="http://www.w3.org/2000/svg" xmlns:xlink="http://www.w3.org/1999/xlink">
    <!-- Generator: Sketch 62 (91390) - https://sketch.com -->
    <title>icon/40px/bar/brush</title>
    <desc>Created with Sketch.</desc>
    <g id="icon/40px/bar/brush" stroke="none" stroke-width="1" fill="none" fill-rule="evenodd">
        <g id="编组" transform="translate(17.500000, 18.370565) rotate(-315.000000) translate(-17.500000, -18.370565) translate(10.000000, -1.129435)" fill="#FBFCFE">
            <path d="M5,7.12943546 L15,7.12943546 L15,30.7118534 C15,30.8868578 14.947962,31.058383 14.8497521,31.2070934 L10.4248761,37.9072865 C10.2792987,38.1277213 9.97106137,38.1955558 9.73640879,38.058799 C9.67093888,38.0206428 9.61574117,37.9687895 9.57512393,37.9072865 L5.15024786,31.2070934 C5.05203799,31.058383 5,30.8868578 5,30.7118534 L5,7.12943546 Z" id="路径"></path>
            <path d="M1.5,6.12943546 C2.32842712,6.12943546 3,6.80100834 3,7.62943546 L3,17.6294355 C3,18.4578626 2.32842712,19.1294355 1.5,19.1294355 C0.671572875,19.1294355 -1.77635684e-15,18.4578626 -1.77635684e-15,17.6294355 L-1.77635684e-15,7.62943546 C-1.77635684e-15,6.80100834 0.671572875,6.12943546 1.5,6.12943546 Z" id="路径"></path>
            <path d="M6.77594093,0 L12.7759409,0 C13.3282257,0 13.7759409,0.373659042 13.7759409,0.834590829 L13.7759409,5 L5.77594093,5 L5.77594093,0.834590829 C5.77594093,0.373659042 6.22365618,0 6.77594093,0 Z" id="路径"></path>
        </g>
        <path d="M37,31 L37,36 C37,36.5522847 36.5522847,37 36,37 L31,37 L31,37 L37,31 Z" id="矩形" fill="#FFFFFF"></path>
    </g>
</svg>