<?xml version="1.0" encoding="UTF-8"?>
<svg width="40px" height="40px" viewBox="0 0 40 40" version="1.1" xmlns="http://www.w3.org/2000/svg" xmlns:xlink="http://www.w3.org/1999/xlink">
    <title>01 通用/01 图标/40px/nav/brush</title>
    <g id="01-通用/01-图标/40px/nav/brush" stroke="none" stroke-width="1" fill="none" fill-rule="evenodd">
        <path d="M37,31 L37,36 C37,36.5522847 36.5522847,37 36,37 L31,37 L37,31 Z M24.4795431,7.85548751 L31.5506109,14.9265553 L14.8753233,31.6018429 C14.7515765,31.7255898 14.5934934,31.81008 14.4188944,31.8457893 L6.5522826,33.4546813 C6.29347289,33.5076135 6.02755,33.337623 5.95832721,33.074997 C5.93901351,33.0017222 5.93664861,32.9260258 5.9514171,32.8538158 L7.56030917,24.987204 C7.59601844,24.812605 7.68050867,24.654522 7.8042555,24.5307751 L24.4795431,7.85548751 Z M22.7117762,4.673507 C23.2975626,5.25929344 23.2975626,6.2090409 22.7117762,6.79482734 L15.6407084,13.8658952 C15.0549219,14.4516816 14.1051744,14.4516816 13.519388,13.8658952 C12.9336016,13.2801087 12.9336016,12.3303612 13.519388,11.7445748 L20.5904558,4.673507 C21.1762423,4.08772056 22.1259897,4.08772056 22.7117762,4.673507 Z M30.7765952,4.06999523 L35.0192358,8.31263592 C35.4097601,8.70316021 35.4621258,9.28395954 35.1361978,9.60988753 L32.1908087,12.5552766 L26.5339545,6.89842235 L29.4793435,3.95303328 C29.8052715,3.62710529 30.3860709,3.67947094 30.7765952,4.06999523 Z" id="Combined-Shape" fill="#FFFFFF"></path>
    </g>
</svg>